<svg width="147" height="44" viewBox="0 0 147 44" fill="none" xmlns="http://www.w3.org/2000/svg">
<path d="M8.73046 35.2213C7.66301 35.2057 6.61115 35.011 5.57487 34.637C4.54638 34.263 3.6114 33.6396 2.76991 32.767C1.92842 31.8943 1.25444 30.7217 0.747991 29.2491C0.24933 27.7765 0 25.9377 0 23.7327C0 21.6445 0.206477 19.7901 0.61943 18.1695C1.04018 16.5488 1.64402 15.1814 2.43097 14.0672C3.21792 12.9452 4.16849 12.092 5.28269 11.5077C6.39688 10.9233 7.64743 10.6311 9.03433 10.6311C10.4602 10.6311 11.7263 10.9116 12.8327 11.4726C13.9391 12.0336 14.8352 12.8089 15.5208 13.7984C16.2143 14.7879 16.6545 15.9138 16.8415 17.176H13.2768C13.0353 16.1787 12.5561 15.3645 11.8393 14.7334C11.1225 14.1023 10.1875 13.7867 9.03433 13.7867C7.28123 13.7867 5.91381 14.5503 4.93207 16.0774C3.95812 17.6046 3.46725 19.7278 3.45946 22.447H3.63477C4.04772 21.7692 4.55418 21.1926 5.15413 20.7173C5.76187 20.2342 6.43974 19.8641 7.18773 19.607C7.94351 19.3421 8.73825 19.2096 9.57195 19.2096C10.9589 19.2096 12.2133 19.5486 13.3353 20.2264C14.4651 20.8965 15.365 21.8237 16.0351 23.008C16.7051 24.1924 17.0402 25.5481 17.0402 27.0752C17.0402 28.6024 16.6935 29.9854 16 31.2243C15.3143 32.4631 14.3482 33.4449 13.1015 34.1695C11.8549 34.8863 10.3979 35.2369 8.73046 35.2213ZM8.71877 32.1826C9.63818 32.1826 10.4602 31.9567 11.1848 31.5047C11.9094 31.0528 12.4821 30.4451 12.9028 29.6815C13.3236 28.9179 13.534 28.0648 13.534 27.122C13.534 26.2026 13.3275 25.365 12.9145 24.6092C12.5094 23.8534 11.9484 23.2535 11.2316 22.8094C10.5225 22.3652 9.7122 22.1432 8.80058 22.1432C8.10713 22.1432 7.46433 22.2756 6.87217 22.5405C6.2878 22.8055 5.77356 23.1717 5.32944 23.6392C4.88532 24.1066 4.5347 24.6443 4.27757 25.252C4.02824 25.852 3.90358 26.487 3.90358 27.157C3.90358 28.0531 4.11006 28.8829 4.52301 29.6465C4.94375 30.41 5.51644 31.0256 6.24105 31.4931C6.97346 31.9528 7.79937 32.1826 8.71877 32.1826Z" fill="#101828"/>
<path d="M21.6245 34.8941V10.9584H30.3901C32.0886 10.9584 33.495 11.2389 34.6092 11.7999C35.7234 12.3531 36.5571 13.1049 37.1103 14.0555C37.6635 14.9983 37.9401 16.0618 37.9401 17.2462C37.9401 18.2435 37.757 19.085 37.3908 19.7706C37.0246 20.4485 36.5337 20.9939 35.9182 21.4069C35.3104 21.812 34.6404 22.1081 33.908 22.2951V22.5289C34.7027 22.5678 35.478 22.8249 36.2337 23.3002C36.9973 23.7677 37.6284 24.4339 38.1271 25.2988C38.6258 26.1636 38.8751 27.2155 38.8751 28.4543C38.8751 29.6776 38.5868 30.7762 38.0102 31.7502C37.4414 32.7163 36.561 33.4838 35.3689 34.0526C34.1768 34.6136 32.6535 34.8941 30.7991 34.8941H21.6245ZM25.2359 31.7969H30.4485C32.1782 31.7969 33.4171 31.4619 34.1651 30.7918C34.9131 30.1217 35.2871 29.2841 35.2871 28.279C35.2871 27.5233 35.0962 26.8298 34.7144 26.1987C34.3326 25.5676 33.7872 25.065 33.0782 24.691C32.3769 24.317 31.5432 24.13 30.5771 24.13H25.2359V31.7969ZM25.2359 21.3134H30.0745C30.8848 21.3134 31.6133 21.1575 32.26 20.8459C32.9145 20.5342 33.4327 20.0979 33.8145 19.5369C34.204 18.9681 34.3988 18.298 34.3988 17.5267C34.3988 16.5371 34.0521 15.7073 33.3587 15.0373C32.6652 14.3672 31.6017 14.0321 30.168 14.0321H25.2359V21.3134Z" fill="#101828"/>
<path d="M59.6172 34.8941H51.8685V10.9584H59.8627C62.2079 10.9584 64.2221 11.4375 65.905 12.3959C67.588 13.3465 68.8775 14.7139 69.7736 16.4982C70.6774 18.2747 71.1293 20.4056 71.1293 22.8912C71.1293 25.3845 70.6735 27.5272 69.7619 29.3192C68.858 31.1113 67.5491 32.4904 65.8349 33.4565C64.1208 34.4149 62.0482 34.8941 59.6172 34.8941ZM55.4799 31.7385H59.4186C61.2418 31.7385 62.7572 31.3957 63.9649 30.71C65.1726 30.0166 66.0765 29.0153 66.6764 27.7064C67.2764 26.3896 67.5763 24.7845 67.5763 22.8912C67.5763 21.0134 67.2764 19.42 66.6764 18.111C66.0842 16.802 65.1999 15.8086 64.0234 15.1308C62.8468 14.4529 61.3859 14.114 59.6406 14.114H55.4799V31.7385Z" fill="#101828"/>
<path d="M75.3397 34.8941V16.9423H78.8342V34.8941H75.3397ZM77.1045 14.1724C76.4967 14.1724 75.9747 13.9698 75.5384 13.5646C75.1098 13.1517 74.8955 12.6608 74.8955 12.092C74.8955 11.5155 75.1098 11.0246 75.5384 10.6194C75.9747 10.2065 76.4967 10 77.1045 10C77.7122 10 78.2303 10.2065 78.6589 10.6194C79.0952 11.0246 79.3134 11.5155 79.3134 12.092C79.3134 12.6608 79.0952 13.1517 78.6589 13.5646C78.2303 13.9698 77.7122 14.1724 77.1045 14.1724Z" fill="#101828"/>
<path d="M91.0621 42C89.6362 42 88.4091 41.813 87.3806 41.439C86.3599 41.065 85.5262 40.5702 84.8795 39.9547C84.2328 39.3392 83.7497 38.6652 83.4302 37.9328L86.4339 36.6939C86.6443 37.0368 86.9248 37.3991 87.2754 37.7809C87.6338 38.1704 88.1169 38.5016 88.7246 38.7743C89.3402 39.047 90.131 39.1833 91.0972 39.1833C92.4217 39.1833 93.5164 38.86 94.3813 38.2133C95.2462 37.5744 95.6786 36.5537 95.6786 35.1512V31.6216H95.4565C95.2462 32.0034 94.9423 32.4281 94.5449 32.8955C94.1553 33.363 93.6177 33.7682 92.9321 34.111C92.2464 34.4539 91.3543 34.6253 90.2557 34.6253C88.8376 34.6253 87.5598 34.2941 86.4222 33.6318C85.2924 32.9618 84.3964 31.9761 83.7341 30.6749C83.0796 29.366 82.7524 27.757 82.7524 25.8481C82.7524 23.9391 83.0757 22.3029 83.7224 20.9394C84.3769 19.5758 85.2729 18.5318 86.4105 17.8072C87.5481 17.0748 88.8376 16.7085 90.279 16.7085C91.3932 16.7085 92.2932 16.8955 92.9788 17.2695C93.6645 17.6357 94.1982 18.0643 94.58 18.5552C94.9696 19.046 95.2695 19.4785 95.4799 19.8524H95.737V16.9423H99.1614V35.2915C99.1614 36.8342 98.803 38.1003 98.0862 39.0898C97.3694 40.0794 96.3993 40.8118 95.176 41.2871C93.9606 41.7624 92.5892 42 91.0621 42ZM91.027 31.7268C92.0321 31.7268 92.8814 31.4931 93.5749 31.0256C94.2761 30.5503 94.8059 29.8724 95.1644 28.992C95.5306 28.1037 95.7137 27.0402 95.7137 25.8013C95.7137 24.5936 95.5345 23.5301 95.176 22.6107C94.8176 21.6913 94.2917 20.9744 93.5983 20.4602C92.9048 19.9382 92.0477 19.6771 91.027 19.6771C89.9752 19.6771 89.0986 19.9498 88.3974 20.4953C87.6961 21.0329 87.1663 21.7653 86.8079 22.6925C86.4573 23.6197 86.282 24.656 86.282 25.8013C86.282 26.9778 86.4612 28.0102 86.8196 28.8985C87.178 29.7867 87.7078 30.4802 88.4091 30.9788C89.1181 31.4775 89.9908 31.7268 91.027 31.7268Z" fill="#101828"/>
<path d="M103.848 34.8941V16.9423H107.343V34.8941H103.848ZM105.613 14.1724C105.005 14.1724 104.483 13.9698 104.047 13.5646C103.618 13.1517 103.404 12.6608 103.404 12.092C103.404 11.5155 103.618 11.0246 104.047 10.6194C104.483 10.2065 105.005 10 105.613 10C106.221 10 106.739 10.2065 107.167 10.6194C107.604 11.0246 107.822 11.5155 107.822 12.092C107.822 12.6608 107.604 13.1517 107.167 13.5646C106.739 13.9698 106.221 14.1724 105.613 14.1724Z" fill="#101828"/>
<path d="M120.424 16.9423V19.7473H110.618V16.9423H120.424ZM113.248 12.6413H116.742V29.6231C116.742 30.301 116.843 30.8113 117.046 31.1541C117.249 31.4892 117.51 31.719 117.829 31.8437C118.156 31.9606 118.511 32.019 118.893 32.019C119.173 32.019 119.419 31.9995 119.629 31.9606C119.839 31.9216 120.003 31.8904 120.12 31.8671L120.751 34.7538C120.548 34.8318 120.26 34.9097 119.886 34.9876C119.512 35.0733 119.045 35.12 118.484 35.1278C117.564 35.1434 116.707 34.9798 115.912 34.637C115.118 34.2941 114.475 33.7643 113.984 33.0475C113.493 32.3307 113.248 31.4307 113.248 30.3477V12.6413Z" fill="#101828"/>
<path d="M129.514 35.2915C128.376 35.2915 127.347 35.0811 126.428 34.6603C125.509 34.2318 124.78 33.6124 124.243 32.802C123.713 31.9917 123.448 30.9983 123.448 29.8218C123.448 28.8089 123.643 27.9752 124.032 27.3207C124.422 26.6662 124.948 26.148 125.61 25.7663C126.272 25.3845 127.012 25.0962 127.831 24.9014C128.649 24.7066 129.482 24.5586 130.332 24.4573C131.407 24.3326 132.28 24.2313 132.95 24.1534C133.62 24.0677 134.107 23.9313 134.411 23.7443C134.714 23.5573 134.866 23.2535 134.866 22.8327V22.7509C134.866 21.7302 134.578 20.9394 134.001 20.3784C133.433 19.8174 132.583 19.5369 131.454 19.5369C130.277 19.5369 129.35 19.7979 128.672 20.3199C128.002 20.8342 127.538 21.4069 127.281 22.038L123.997 21.29C124.387 20.1992 124.955 19.3187 125.703 18.6486C126.459 17.9708 127.328 17.4799 128.31 17.176C129.291 16.8644 130.324 16.7085 131.407 16.7085C132.124 16.7085 132.883 16.7943 133.686 16.9657C134.496 17.1293 135.252 17.4332 135.953 17.8773C136.662 18.3214 137.243 18.9564 137.695 19.7823C138.147 20.6004 138.373 21.664 138.373 22.973V34.8941H134.96V32.4397H134.82C134.594 32.8917 134.255 33.3358 133.803 33.7721C133.351 34.2084 132.77 34.5707 132.061 34.859C131.352 35.1473 130.503 35.2915 129.514 35.2915ZM130.273 32.4865C131.239 32.4865 132.065 32.2956 132.751 31.9138C133.444 31.532 133.97 31.0334 134.329 30.4178C134.695 29.7945 134.878 29.1283 134.878 28.4193V26.1052C134.753 26.2299 134.512 26.3467 134.153 26.4558C133.803 26.5571 133.402 26.6467 132.95 26.7246C132.498 26.7947 132.057 26.861 131.629 26.9233C131.2 26.9778 130.842 27.0246 130.554 27.0636C129.876 27.1493 129.256 27.2934 128.695 27.496C128.142 27.6986 127.698 27.9907 127.363 28.3725C127.036 28.7465 126.872 29.2452 126.872 29.8685C126.872 30.7334 127.192 31.3879 127.831 31.832C128.469 32.2683 129.284 32.4865 130.273 32.4865Z" fill="#101828"/>
<path d="M146.522 10.9584V34.8941H143.027V10.9584H146.522Z" fill="#101828"/>
</svg>
